<?xml version="1.0" encoding="utf-8"?>
<!-- Generator: Adobe Illustrator 25.2.1, SVG Export Plug-In . SVG Version: 6.00 Build 0)  -->
<svg version="1.1" id="Layer_1" xmlns="http://www.w3.org/2000/svg" xmlns:xlink="http://www.w3.org/1999/xlink" x="0px" y="0px"
	 viewBox="0 0 341.1 96.2" style="enable-background:new 0 0 341.1 96.2;" xml:space="preserve">
<style type="text/css">
	.st0{fill:#FFFFFF;stroke:#FFFFFF;stroke-miterlimit:10;}
	.st1{font-family:'ArialRoundedMTBold';}
	.st2{font-size:91.716px;}
	.st3{fill:#FFFFFF;stroke:#020203;stroke-miterlimit:10;}
	.st4{fill-rule:evenodd;clip-rule:evenodd;fill:#FFFFFF;stroke:#FFFFFF;stroke-miterlimit:10;}
	.st5{fill-rule:evenodd;clip-rule:evenodd;fill:#298A81;}
</style>
<g>
	<text transform="matrix(1 0 0 1 133.9427 76.9802)" class="st0 st1 st2">orge</text>
</g>
<path class="st3" d="M14.4,86.5c9.4-9.7,11.8-25.4,13.4-38.2c1-8.7,1.5-17.6,1.3-26.3c-0.1-4-9.7-5.4-9.7-1.7v16.6
	c0,5.6-1,12.8,1.2,18.2c4.1,10.2,16.7,15.1,27,11.7C56.1,64,60.3,56.6,60.3,48V28c0-4-9.6-5.4-9.6-1.7v43.9c0,4,9.6,5.4,9.6,1.7V28
	c0-4-9.6-5.4-9.6-1.7v14.9c0,6,0.8,12.3-3.7,17.1c-6.5,7-16,3.1-17.7-5.8c-0.9-4.6-0.2-9.6-0.2-14.1V22c-3.3-0.5-6.4-1.2-9.7-1.7
	c0.2,8.5-0.2,17.2-1.2,25.6c-1.4,12.6-3.6,28-12.8,37.5c-1.6,1.6,1.5,3.6,2.7,4C10.1,88.1,12.9,88.1,14.4,86.5"/>
<path class="st4" d="M21.7,22.8c0,2.3,0,4.5-0.1,6.7v7.3c0,5.4-1.1,12.3,1,17.4c0.4,1.1,1,2.2,1.7,3.1c0.5-3.3,1-6.4,1.3-9.4
	c0.7-5.5,1.1-11.1,1.2-16.7v-7.6L21.7,22.8z M52.9,61.3c3.5-3.3,5.2-8,5.2-13.3V28c0-0.4-0.5-0.7-1-1c-0.9-0.5-2.1-0.8-3-0.8
	c-0.4,0-1,0.1-1.2,0.2v14.6c0,1.7,0,3.5,0,5.2V61.3z M28.7,57.3c-0.2,1.3-0.4,2.7-0.8,4.1c5.2,4.1,12.6,5.4,18.9,3.4
	c0.5-0.2,1.1-0.4,1.6-0.7v-4.5c-3.9,4.2-8.8,5-12.8,3.6C32.8,62.3,30.3,60.2,28.7,57.3z M58.1,62c-1.4,1.8-3.1,3.5-5.2,4.8v3.4
	c0,0.4,0.5,0.7,1,1c0.9,0.5,2.1,0.8,3,0.8c0.4,0,1-0.1,1.2-0.2V62z M18.9,56.7c-1.7,10.1-4.8,20.4-11.5,27.6l0.1,0.1
	c0.4,0.4,1.1,0.8,1.4,0.9c1.3,0.4,2.9,0.7,3.9-0.3c5.6-5.8,8.6-13.8,10.4-22C21.5,61.2,20,59.1,18.9,56.7z M17.3,20.1
	c0-2.6,2.3-4.2,5.5-4.2c2.1,0,4.5,0.8,6.1,2c1.4,1.1,2.3,2.5,2.3,4l0,0l0,0l0,0c0.1,3.1,0.1,6.3,0,9.6v6.8c0,4.5-0.7,9.3,0.2,13.7
	c0.7,3.6,2.9,6.2,5.6,7.2c2.6,1,5.8,0.2,8.3-2.5c1.8-2.1,2.6-4.3,2.9-6.8c0.1-0.7,0.1-1.4,0.2-2.1V26.3c0-2.6,2.3-4.3,5.5-4.3h0.2
	c2.1,0,4.3,0.8,6,2c1.4,1.1,2.3,2.5,2.3,4.1v43.8c0,2.6-2.3,4.3-5.5,4.3c-2.1,0-4.6-0.7-6.2-2c-1.4-1.1-2.3-2.5-2.3-4.1v-1.3
	l-0.2,0.1C41.2,71.2,33.2,70,27,65.9c-2.1,8.3-5.3,16.2-11,22l-1.5-1.5L16,88c-2.2,2.3-5.8,2.5-8.6,1.4c-1-0.3-2.9-1.5-3.8-2.8
	c-0.7-0.9-0.9-1.8-0.8-2.8c0.1-0.7,0.4-1.3,1-2c8.9-9.1,10.9-24.1,12.3-36.2c0.5-5.3,1-10.6,1.2-16.1L17.3,20.1L17.3,20.1z"/>
<path class="st4" d="M80.5,51.2c0-0.7-0.2-1.3-0.7-1.7c-0.4-0.4-1.1-0.7-1.7-0.7c-4.2,0-13.1,0-17.5,0c-0.7,0-1.3,0.2-1.7,0.7
	c-0.4,0.4-0.7,1.1-0.7,1.7l0,0c0,0.7,0.2,1.3,0.7,1.7s1.1,0.7,1.7,0.7c4.2,0,13.3,0,17.5,0c0.7,0,1.3-0.2,1.7-0.7
	C80.3,52.4,80.5,51.8,80.5,51.2L80.5,51.2z"/>
<path class="st4" d="M67.2,60.8c0-1.3-1.1-2.4-2.4-2.4h-4c-1.3,0-2.4,1.1-2.4,2.4l0,0c0,1.3,1.1,2.4,2.4,2.4h4
	C66.1,63.2,67.2,62.1,67.2,60.8L67.2,60.8z"/>
<path class="st4" d="M65.5,31.6c0-0.8-0.2-1.4-0.8-1.8C64.3,29.2,63.7,29,63,29c-1.7,0-4,0-5.6,0c-0.7,0-1.3,0.3-1.7,0.8
	c-0.4,0.5-0.8,1.2-0.8,1.8l0,0c0,0.8,0.2,1.4,0.8,1.8c0.4,0.5,1.1,0.8,1.7,0.8c1.7,0,4,0,5.6,0c0.7,0,1.3-0.3,1.7-0.8
	C65.3,33,65.5,32.3,65.5,31.6L65.5,31.6z"/>
<rect x="54.9" y="39" class="st0" width="18.6" height="4.8"/>
<path class="st4" d="M74.5,41.4c0-1.3-1.2-2.4-2.6-2.4H57.4c-1.4,0-2.6,1.1-2.6,2.4l0,0c0,1.3,1.2,2.4,2.6,2.4H72
	C73.5,43.8,74.5,42.7,74.5,41.4L74.5,41.4z"/>
<path class="st4" d="M69.9,70.9c0-0.7-0.2-1.3-0.7-1.7c-0.4-0.4-1.1-0.7-1.7-0.7H59c-0.7,0-1.3,0.2-1.7,0.7
	c-0.4,0.4-0.7,1.1-0.7,1.7l0,0c0,0.7,0.2,1.3,0.7,1.7s1.1,0.7,1.7,0.7h8.5c0.7,0,1.3-0.2,1.7-0.7C69.6,72.1,69.9,71.6,69.9,70.9
	L69.9,70.9z"/>
<path class="st0" d="M84.3,41.6c0-0.7-0.2-1.3-0.7-1.7s-1.1-0.7-1.7-0.7h-1.7c-0.7,0-1.3,0.2-1.7,0.7c-0.4,0.4-0.7,1.1-0.7,1.7l0,0
	c0,0.7,0.2,1.3,0.7,1.7c0.4,0.4,1.1,0.7,1.7,0.7h1.7c0.7,0,1.3-0.2,1.7-0.7C84.1,42.8,84.3,42.2,84.3,41.6L84.3,41.6z M76.4,60.8
	c0-0.7-0.2-1.3-0.7-1.7s-1.1-0.7-1.7-0.7h-1.7c-0.7,0-1.3,0.2-1.7,0.7c-0.4,0.4-0.7,1.1-0.7,1.7l0,0c0,0.7,0.2,1.3,0.7,1.7
	c0.4,0.4,1.1,0.7,1.7,0.7H74c0.7,0,1.3-0.2,1.7-0.7C76.2,62,76.4,61.5,76.4,60.8L76.4,60.8z M87.6,29.5c2.1,0,3.8-1.7,3.8-3.8
	c0-1.2,0-2.3,0-2.3c0-2.1-1.6-3.7-3.7-3.7l0,0c-1.1,0-2.2-0.4-3.1-1.3c-1.5-1.4-2.7-4-3-6.2c-0.5-3.3,1-5.6,3.6-5.6h47.8
	c1.1,0,2.2,0.4,3.1,1.3c1.5,1.4,2.7,4,3,6.2c0.5,3.3-1,5.6-3.6,5.6h-23.2c-3.8,0-6.8,3-6.8,6.8l0,0c0,3.8,3,6.8,6.8,6.8
	c4.3,0,9.1,0,9.1,0c1.5,0,2.9,0.7,4.2,1.8c1.5,1.4,2.7,3.7,3.1,5.5c0.3,1.7,0,3.4-0.8,4.3c-0.7,0.9-1.6,1.4-3.1,1.4h-12.4
	c-1.8,0-3.7,0.8-5,2.1s-2.1,3.1-2.1,5v17.8c0,4-3.5,5.9-7.2,5.5c-2-0.2-3.8-1.1-5-2.3c-1.3-1.3-3-2.1-4.9-2.1c-4.6,0-11.9,0-11.9,0
	c-0.7,0-1.3-0.2-1.7-0.7c-0.4-0.4-0.7-1.1-0.7-1.7l0,0c0-0.7,0.2-1.3,0.7-1.7c0.4-0.4,1.1-0.7,1.7-0.7h15.1v-4.6H81.4
	c-0.7,0-1.3-0.2-1.7-0.8C79.2,62,79,61.4,79,60.7l0,0c0-0.7,0.2-1.3,0.7-1.7c0.4-0.4,1.1-0.7,1.7-0.7h10.1v-4.8h-3.1
	c-0.7,0-1.3-0.2-1.7-0.7c-0.4-0.4-0.8-1.1-0.8-1.7l0,0c0-0.7,0.2-1.3,0.8-1.7c0.4-0.4,1.1-0.7,1.7-0.7h3v-5h-2
	c-0.7,0-1.3-0.2-1.7-0.7c-0.4-0.4-0.7-1.1-0.7-1.7l0,0c0-0.7,0.2-1.3,0.7-1.7c0.4-0.4,1.1-0.7,1.7-0.7h2v-4.7H73
	c-0.7,0-1.3-0.2-1.7-0.7s-0.7-1.1-0.7-1.7l0,0c0-0.7,0.2-1.3,0.7-1.7s1.1-0.7,1.7-0.7C73,29.5,82.3,29.5,87.6,29.5z"/>
<path class="st5" d="M95,36.7c0-0.7-0.2-1.3-0.7-1.7c-0.4-0.4-1.1-0.7-1.7-0.7c-7.3,0-28.7,0-36,0c-0.7,0-1.3,0.2-1.7,0.7
	c-0.4,0.4-0.7,1.1-0.7,1.7l0,0c0,0.7,0.2,1.3,0.7,1.7s1.1,0.7,1.7,0.7c7.3,0,28.7,0,36,0c0.7,0,1.3-0.2,1.7-0.7
	C94.8,37.9,95,37.4,95,36.7L95,36.7z"/>
<path class="st5" d="M95.6,56c0-0.7-0.2-1.3-0.7-1.7s-1.1-0.7-1.7-0.7c-7,0-26.8,0-33.8,0c-0.7,0-1.3,0.2-1.7,0.7
	c-0.4,0.4-0.7,1.1-0.7,1.7l0,0c0,0.7,0.2,1.3,0.7,1.7c0.4,0.4,1.1,0.7,1.7,0.7c7,0,26.8,0,33.8,0c0.7,0,1.3-0.2,1.7-0.7
	C95.3,57.3,95.6,56.6,95.6,56L95.6,56z"/>
<path class="st5" d="M98.4,46.3c0-0.7-0.2-1.3-0.7-1.7c-0.4-0.4-1.1-0.7-1.7-0.7c-7,0-27,0-34,0c-0.7,0-1.3,0.2-1.7,0.7
	c-0.4,0.4-0.7,1.1-0.7,1.7l0,0c0,0.7,0.2,1.3,0.7,1.7c0.4,0.4,1.1,0.7,1.7,0.7c7,0,27,0,34,0c0.7,0,1.3-0.2,1.7-0.7
	C98.2,47.5,98.4,46.9,98.4,46.3L98.4,46.3z"/>
<path class="st5" d="M98.7,65.6c0-0.7-0.2-1.3-0.7-1.7s-1.1-0.7-1.7-0.7c-7.1,0-27.8,0-34.9,0c-0.7,0-1.3,0.2-1.7,0.7
	C59.2,64.3,59,65,59,65.6l0,0c0,0.7,0.2,1.3,0.7,1.7c0.4,0.4,1.1,0.7,1.7,0.7c7.1,0,27.8,0,34.9,0c0.7,0,1.3-0.2,1.7-0.7
	C98.4,66.9,98.7,66.3,98.7,65.6L98.7,65.6z"/>
</svg>
