<?xml version="1.0" encoding="utf-8"?>
<!-- Generator: Adobe Illustrator 25.2.1, SVG Export Plug-In . SVG Version: 6.00 Build 0)  -->
<svg version="1.1" id="Layer_1" xmlns="http://www.w3.org/2000/svg" xmlns:xlink="http://www.w3.org/1999/xlink" x="0px" y="0px"
	 viewBox="0 0 129.7 80.3" style="enable-background:new 0 0 129.7 80.3;" xml:space="preserve">
<style type="text/css">
	.st0{stroke:#000000;stroke-miterlimit:10;}
	.st1{fill-rule:evenodd;clip-rule:evenodd;stroke:#000000;stroke-miterlimit:10;}
	.st2{fill-rule:evenodd;clip-rule:evenodd;fill:#FFFFFF;}
</style>
<path class="st0" d="M12.9,75.5c8.7-8.9,10.9-23.4,12.3-35.2c0.9-8,1.4-16.2,1.2-24.2c-0.1-3.7-8.9-5-8.9-1.6v15.3
	c0,5.2-0.9,11.8,1.1,16.8C22.4,56,34,60.5,43.5,57.4c7.8-2.6,11.7-9.4,11.7-17.3V21.7c0-3.7-8.8-5-8.8-1.6v40.4c0,3.7,8.8,5,8.8,1.6
	V21.7c0-3.7-8.8-5-8.8-1.6v13.7c0,5.5,0.7,11.3-3.4,15.7c-6,6.4-14.7,2.9-16.3-5.3c-0.8-4.2-0.2-8.8-0.2-13V16.1
	c-3-0.5-5.9-1.1-8.9-1.6c0.2,7.8-0.2,15.8-1.1,23.6c-1.3,11.6-3.3,25.8-11.8,34.5c-1.5,1.5,1.4,3.3,2.5,3.7C9,77,11.5,77,12.9,75.5"
	/>
<path class="st1" d="M19.6,16.9c0,2.1,0,4.1-0.1,6.2v6.7c0,5-1,11.3,0.9,16c0.4,1,0.9,2,1.6,2.9c0.5-3,0.9-5.9,1.2-8.7
	c0.6-5.1,1-10.2,1.1-15.4v-7L19.6,16.9z M48.4,52.3c3.2-3,4.8-7.4,4.8-12.2V21.7c0-0.4-0.5-0.6-0.9-0.9c-0.8-0.5-1.9-0.7-2.8-0.7
	c-0.4,0-0.9,0.1-1.1,0.2v13.4c0,1.6,0,3.2,0,4.8V52.3z M26.1,48.6c-0.2,1.2-0.4,2.5-0.7,3.8c4.8,3.8,11.6,5,17.4,3.1
	c0.5-0.2,1-0.4,1.5-0.6v-4.1c-3.6,3.9-8.1,4.6-11.8,3.3C29.9,53.2,27.6,51.3,26.1,48.6z M53.2,53c-1.3,1.7-2.9,3.2-4.8,4.4v3.1
	c0,0.4,0.5,0.6,0.9,0.9c0.8,0.5,1.9,0.7,2.8,0.7c0.4,0,0.9-0.1,1.1-0.2V53z M17.1,48.1c-1.6,9.3-4.4,18.8-10.6,25.4
	c0,0,0.1,0.1,0.1,0.1c0.4,0.4,1,0.7,1.3,0.8c1.2,0.4,2.7,0.6,3.6-0.3c5.2-5.3,7.9-12.7,9.6-20.3C19.5,52.2,18.1,50.3,17.1,48.1z
	 M15.6,14.4c0-2.4,2.1-3.9,5.1-3.9c1.9,0,4.1,0.7,5.6,1.8c1.3,1,2.1,2.3,2.1,3.7l0,0v0l0,0c0.1,2.9,0.1,5.8,0,8.8v6.3
	c0,4.1-0.6,8.6,0.2,12.6c0.6,3.3,2.7,5.7,5.2,6.6c2.4,0.9,5.3,0.2,7.6-2.3c1.7-1.9,2.4-4,2.7-6.3c0.1-0.6,0.1-1.3,0.2-1.9V20.1
	c0-2.4,2.1-4,5.1-4l0.2,0c1.9,0,4,0.7,5.5,1.8c1.3,1,2.1,2.3,2.1,3.8V62c0,2.4-2.1,4-5.1,4c-1.9,0-4.2-0.6-5.7-1.8
	c-1.3-1-2.1-2.3-2.1-3.8v-1.2l-0.2,0.1c-6.5,2.1-13.9,1-19.6-2.7c-1.9,7.6-4.9,14.9-10.1,20.3l-1.4-1.4l1.4,1.4
	c-2,2.1-5.3,2.3-7.9,1.3c-0.9-0.3-2.7-1.4-3.5-2.6c-0.6-0.8-0.8-1.7-0.7-2.6c0.1-0.6,0.4-1.2,0.9-1.8c8.2-8.4,10-22.2,11.3-33.3
	c0.5-4.9,0.9-9.8,1.1-14.8L15.6,14.4L15.6,14.4z"/>
<path class="st1" d="M73.8,43c0-0.6-0.2-1.2-0.6-1.6c-0.4-0.4-1-0.6-1.6-0.6c-3.9,0-12.1,0-16.1,0c-0.6,0-1.2,0.2-1.6,0.6
	c-0.4,0.4-0.6,1-0.6,1.6c0,0,0,0,0,0c0,0.6,0.2,1.2,0.6,1.6c0.4,0.4,1,0.6,1.6,0.6c3.9,0,12.2,0,16.1,0c0.6,0,1.2-0.2,1.6-0.6
	C73.6,44.1,73.8,43.6,73.8,43C73.8,43,73.8,43,73.8,43z"/>
<path class="st1" d="M61.5,51.9c0-1.2-1-2.2-2.2-2.2h-3.7c-1.2,0-2.2,1-2.2,2.2v0c0,1.2,1,2.2,2.2,2.2h3.7
	C60.5,54.1,61.5,53.1,61.5,51.9L61.5,51.9z"/>
<path class="st1" d="M60,25c0-0.7-0.2-1.3-0.7-1.7c-0.4-0.5-1-0.7-1.6-0.7c-1.6,0-3.7,0-5.2,0c-0.6,0-1.2,0.3-1.6,0.7
	c-0.4,0.5-0.7,1.1-0.7,1.7c0,0,0,0,0,0c0,0.7,0.2,1.3,0.7,1.7c0.4,0.5,1,0.7,1.6,0.7c1.6,0,3.7,0,5.2,0c0.6,0,1.2-0.3,1.6-0.7
	C59.8,26.3,60,25.6,60,25C60,25,60,25,60,25z"/>
<image style="overflow:visible;" width="54" height="14" xlink:href="43ACC19D.jpg"  transform="matrix(0.3173 0 0 0.3171 50.1773 31.7825)">
</image>
<rect x="50.2" y="31.8" class="st0" width="17.1" height="4.4"/>
<path class="st1" d="M68.3,34c0-1.2-1.1-2.2-2.4-2.2H52.5c-1.3,0-2.4,1-2.4,2.2v0c0,1.2,1.1,2.2,2.4,2.2H66
	C67.3,36.2,68.3,35.2,68.3,34L68.3,34z"/>
<path class="st1" d="M64,61.2c0-0.6-0.2-1.2-0.6-1.6c-0.4-0.4-1-0.6-1.6-0.6H54c-0.6,0-1.2,0.2-1.6,0.6c-0.4,0.4-0.6,1-0.6,1.6v0
	c0,0.6,0.2,1.2,0.6,1.6c0.4,0.4,1,0.6,1.6,0.6h7.8c0.6,0,1.2-0.2,1.6-0.6C63.7,62.3,64,61.8,64,61.2L64,61.2z"/>
<path class="st0" d="M77.3,34.2c0-0.6-0.2-1.2-0.6-1.6c-0.4-0.4-1-0.6-1.6-0.6h-1.6c-0.6,0-1.2,0.2-1.6,0.6c-0.4,0.4-0.6,1-0.6,1.6
	v0c0,0.6,0.2,1.2,0.6,1.6c0.4,0.4,1,0.6,1.6,0.6h1.6c0.6,0,1.2-0.2,1.6-0.6C77.1,35.3,77.3,34.7,77.3,34.2L77.3,34.2z M70,51.9
	c0-0.6-0.2-1.2-0.6-1.6c-0.4-0.4-1-0.6-1.6-0.6h-1.6c-0.6,0-1.2,0.2-1.6,0.6c-0.4,0.4-0.6,1-0.6,1.6v0c0,0.6,0.2,1.2,0.6,1.6
	c0.4,0.4,1,0.6,1.6,0.6h1.6c0.6,0,1.2-0.2,1.6-0.6C69.8,53,70,52.5,70,51.9L70,51.9z M80.3,23c1.9,0,3.5-1.6,3.5-3.5
	c0-1.1,0-2.1,0-2.1c0-1.9-1.5-3.4-3.4-3.4l0,0c-1,0-2-0.4-2.9-1.2c-1.4-1.3-2.5-3.7-2.8-5.7c-0.5-3,0.9-5.2,3.3-5.2H122
	c1,0,2,0.4,2.9,1.2c1.4,1.3,2.5,3.7,2.8,5.7c0.5,3-0.9,5.2-3.3,5.2H103c-3.5,0-6.3,2.8-6.3,6.3l0,0c0,3.5,2.8,6.3,6.3,6.3
	c4,0,8.4,0,8.4,0c1.4,0,2.7,0.6,3.9,1.7c1.4,1.3,2.5,3.4,2.9,5.1c0.3,1.6,0,3.1-0.7,4c-0.6,0.8-1.5,1.3-2.9,1.3h-11.4
	c-1.7,0-3.4,0.7-4.6,1.9c-1.2,1.2-1.9,2.9-1.9,4.6v16.4c0,3.7-3.2,5.4-6.6,5.1c-1.8-0.2-3.5-1-4.6-2.1c-1.2-1.2-2.8-1.9-4.5-1.9
	c-4.2,0-11,0-11,0c-0.6,0-1.2-0.2-1.6-0.6c-0.4-0.4-0.6-1-0.6-1.6l0,0c0-0.6,0.2-1.2,0.6-1.6c0.4-0.4,1-0.6,1.6-0.6h13.9v-4.2h-9.3
	c-0.6,0-1.2-0.2-1.6-0.7c-0.4-0.4-0.6-1-0.6-1.6c0,0,0,0,0,0c0-0.6,0.2-1.2,0.6-1.6c0.4-0.4,1-0.6,1.6-0.6h9.3v-4.4H81
	c-0.6,0-1.2-0.2-1.6-0.6c-0.4-0.4-0.7-1-0.7-1.6c0,0,0,0,0,0c0-0.6,0.2-1.2,0.7-1.6c0.4-0.4,1-0.6,1.6-0.6h2.8v-4.6H82
	c-0.6,0-1.2-0.2-1.6-0.6c-0.4-0.4-0.6-1-0.6-1.6c0,0,0,0,0,0c0-0.6,0.2-1.2,0.6-1.6c0.4-0.4,1-0.6,1.6-0.6h1.8v-4.3H66.9
	c-0.6,0-1.2-0.2-1.6-0.6c-0.4-0.4-0.6-1-0.6-1.6c0,0,0,0,0,0c0-0.6,0.2-1.2,0.6-1.6c0.4-0.4,1-0.6,1.6-0.6C66.9,23,75.4,23,80.3,23z
	"/>
<path class="st2" d="M87.1,29.7c0-0.6-0.2-1.2-0.6-1.6c-0.4-0.4-1-0.6-1.6-0.6c-6.7,0-26.4,0-33.1,0c-0.6,0-1.2,0.2-1.6,0.6
	c-0.4,0.4-0.6,1-0.6,1.6c0,0,0,0,0,0c0,0.6,0.2,1.2,0.6,1.6c0.4,0.4,1,0.6,1.6,0.6c6.7,0,26.4,0,33.1,0c0.6,0,1.2-0.2,1.6-0.6
	C86.9,30.8,87.1,30.3,87.1,29.7C87.1,29.7,87.1,29.7,87.1,29.7z"/>
<path class="st2" d="M87.7,47.4c0-0.6-0.2-1.2-0.6-1.6c-0.4-0.4-1-0.6-1.6-0.6c-6.4,0-24.7,0-31.1,0c-0.6,0-1.2,0.2-1.6,0.6
	c-0.4,0.4-0.6,1-0.6,1.6c0,0,0,0,0,0c0,0.6,0.2,1.2,0.6,1.6c0.4,0.4,1,0.6,1.6,0.6c6.4,0,24.7,0,31.1,0c0.6,0,1.2-0.2,1.6-0.6
	C87.4,48.6,87.7,48,87.7,47.4C87.7,47.4,87.7,47.4,87.7,47.4z"/>
<path class="st2" d="M90.3,38.5c0-0.6-0.2-1.2-0.6-1.6c-0.4-0.4-1-0.6-1.6-0.6c-6.4,0-24.9,0-31.3,0c-0.6,0-1.2,0.2-1.6,0.6
	c-0.4,0.4-0.6,1-0.6,1.6v0c0,0.6,0.2,1.2,0.6,1.6c0.4,0.4,1,0.6,1.6,0.6c6.4,0,24.9,0,31.3,0c0.6,0,1.2-0.2,1.6-0.6
	C90.1,39.6,90.3,39.1,90.3,38.5L90.3,38.5z"/>
<path class="st2" d="M90.5,56.3c0-0.6-0.2-1.2-0.6-1.6c-0.4-0.4-1-0.6-1.6-0.6c-6.5,0-25.6,0-32.1,0c-0.6,0-1.2,0.2-1.6,0.6
	c-0.4,0.4-0.6,1-0.6,1.6l0,0c0,0.6,0.2,1.2,0.6,1.6c0.4,0.4,1,0.6,1.6,0.6c6.5,0,25.6,0,32.1,0c0.6,0,1.2-0.2,1.6-0.6
	C90.3,57.5,90.5,56.9,90.5,56.3L90.5,56.3z"/>
</svg>
