<?xml version="1.0" encoding="utf-8"?>
<!-- Generator: Adobe Illustrator 25.2.1, SVG Export Plug-In . SVG Version: 6.00 Build 0)  -->
<svg version="1.1" id="Layer_1" xmlns="http://www.w3.org/2000/svg" xmlns:xlink="http://www.w3.org/1999/xlink" x="0px" y="0px"
	 viewBox="0 0 595.3 841.9" style="enable-background:new 0 0 595.3 841.9;" xml:space="preserve">
<style type="text/css">
	.st0{clip-path:url(#SVGID_2_);}
	.st1{clip-path:url(#SVGID_4_);}
	.st2{clip-path:url(#SVGID_8_);}
	.st3{clip-path:url(#SVGID_10_);}
	.st4{clip-path:url(#SVGID_14_);}
	.st5{clip-path:url(#SVGID_18_);}
	.st6{clip-path:url(#SVGID_22_);}
	.st7{clip-path:url(#SVGID_26_);}
	.st8{clip-path:url(#SVGID_30_);}
	.st9{stroke:#000000;stroke-miterlimit:10;}
	.st10{fill-rule:evenodd;clip-rule:evenodd;fill:#FFFFFF;}
	.st11{font-family:'ArialRoundedMTBold';}
	.st12{font-size:91.716px;}
</style>
<g>
	<g>
		<defs>
			<path id="SVGID_1_" d="M149.3,273.4c9.4-9.7,11.9-25.4,13.4-38.2c1-8.7,1.5-17.6,1.3-26.3c-0.1-4-9.6-5.5-9.6-1.8v16.7
				c0,5.7-1,12.8,1.2,18.2c4.1,10.3,16.7,15.1,27,11.7c8.5-2.8,12.7-10.2,12.7-18.8v-20c0-4-9.6-5.4-9.6-1.8V257
				c0,4,9.6,5.4,9.6,1.8v-43.9c0-4-9.6-5.4-9.6-1.8V228c0,6,0.7,12.3-3.7,17c-6.5,7-16,3.2-17.7-5.7c-0.9-4.5-0.3-9.6-0.3-14.1
				v-16.4c-3.2-0.6-6.4-1.2-9.6-1.8c0.3,8.5-0.2,17.1-1.2,25.6c-1.4,12.6-3.6,28-12.8,37.5c-1.6,1.6,1.5,3.6,2.7,4.1
				C145,275,147.7,275,149.3,273.4"/>
		</defs>
		<use xlink:href="#SVGID_1_"  style="overflow:visible;"/>
		<clipPath id="SVGID_2_">
			<use xlink:href="#SVGID_1_"  style="overflow:visible;"/>
		</clipPath>
		<g class="st0">
			<g>
				<defs>
					
						<rect id="SVGID_3_" x="125" y="194.2" transform="matrix(0.8788 -0.4772 0.4772 0.8788 -93.9067 108.6579)" width="83.9" height="90"/>
				</defs>
				<clipPath id="SVGID_4_">
					<use xlink:href="#SVGID_3_"  style="overflow:visible;"/>
				</clipPath>
				<g class="st1">
					<defs>
						
							<rect id="SVGID_5_" x="87.2" y="159" transform="matrix(0.8788 -0.4772 0.4772 0.8788 -93.9059 108.6562)" width="159.4" height="160.3"/>
					</defs>
					<clipPath id="SVGID_6_">
						<use xlink:href="#SVGID_5_"  style="overflow:visible;"/>
					</clipPath>
					<g style="clip-path:url(#SVGID_6_);">
						
							<image style="overflow:visible;" width="903" height="905" xlink:href="9E0945D5.jpg"  transform="matrix(0.24 0 0 0.24 58.56 130.56)">
						</image>
					</g>
				</g>
			</g>
		</g>
		<use xlink:href="#SVGID_1_"  style="overflow:visible;fill:none;stroke:#000000;stroke-miterlimit:10;"/>
	</g>
	<g>
		<defs>
			<path id="SVGID_7_" d="M156.5,209.7c0,2.2,0,4.5-0.1,6.8v7.3c0,5.4-1,12.3,1,17.4c0.5,1.1,1,2.2,1.7,3.2c0.5-3.2,0.9-6.4,1.3-9.4
				c0.6-5.5,1.1-11.1,1.2-16.7v-7.6L156.5,209.7z M187.8,248.2c3.5-3.3,5.2-8,5.2-13.3v-20c0-0.5-0.5-0.7-0.9-0.9
				c-0.9-0.5-2.1-0.8-3.1-0.8c-0.4,0-0.9,0.1-1.2,0.2V228c0,1.7,0,3.5,0,5.3V248.2z M163.6,244.2c-0.2,1.4-0.5,2.7-0.7,4.1
				c5.2,4.1,12.6,5.4,18.9,3.4c0.6-0.2,1.1-0.4,1.6-0.6v-4.4c-3.9,4.2-8.8,5-12.9,3.6C167.7,249.2,165.2,247.1,163.6,244.2z
				 M193,248.9c-1.4,1.9-3.2,3.5-5.2,4.7v3.4c0,0.5,0.5,0.7,0.9,0.9c0.9,0.5,2.1,0.8,3.1,0.8c0.4,0,0.9-0.1,1.2-0.2V248.9z
				 M153.8,243.6c-1.7,10.1-4.8,20.4-11.6,27.6c0,0,0.1,0.1,0.1,0.1c0.5,0.4,1,0.7,1.4,0.9c1.3,0.5,2.9,0.7,3.9-0.4
				c5.6-5.8,8.6-13.8,10.4-22C156.4,248,154.9,246,153.8,243.6z M152.1,207c0-2.6,2.3-4.3,5.5-4.3c2.1,0,4.5,0.7,6.1,1.9
				c1.4,1,2.3,2.5,2.3,4l0,0v0l0,0c0.1,3.2,0.1,6.3,0,9.5v6.9c0,4.4-0.6,9.3,0.2,13.7c0.7,3.6,2.9,6.2,5.6,7.2
				c2.7,0.9,5.8,0.2,8.3-2.5c1.9-2,2.6-4.4,2.9-6.9c0.1-0.7,0.1-1.4,0.2-2.1v-21.4c0-2.6,2.3-4.3,5.6-4.3l0.2,0
				c2.1,0,4.4,0.7,5.9,1.9c1.4,1.1,2.3,2.5,2.3,4.2v43.9c0,2.6-2.3,4.3-5.6,4.3c-2.1,0-4.5-0.7-6.1-1.9c-1.4-1.1-2.3-2.5-2.3-4.2
				v-1.3l-0.2,0.1c-7.1,2.3-15.1,1.1-21.3-2.9c-2.1,8.3-5.3,16.2-11,22.1l-1.6-1.5l1.6,1.5c-2.2,2.2-5.8,2.5-8.6,1.4
				c-1-0.4-2.9-1.5-3.8-2.9c-0.6-0.9-0.9-1.8-0.7-2.8c0.1-0.7,0.4-1.4,1-2c8.9-9.2,10.9-24.1,12.2-36.2c0.6-5.3,1-10.7,1.2-16
				L152.1,207L152.1,207z"/>
		</defs>
		<clipPath id="SVGID_8_">
			<use xlink:href="#SVGID_7_"  style="overflow:visible;"/>
		</clipPath>
		<g class="st2">
			<g>
				<defs>
					
						<rect id="SVGID_9_" x="123.3" y="193" transform="matrix(0.8788 -0.4772 0.4772 0.8788 -94.2522 109.0095)" width="88.2" height="94.1"/>
				</defs>
				<clipPath id="SVGID_10_">
					<use xlink:href="#SVGID_9_"  style="overflow:visible;"/>
				</clipPath>
				<g class="st3">
					<defs>
						
							<rect id="SVGID_11_" x="83.9" y="156" transform="matrix(0.8788 -0.4772 0.4772 0.8788 -94.2533 109.011)" width="167.2" height="168.1"/>
					</defs>
					<clipPath id="SVGID_12_">
						<use xlink:href="#SVGID_11_"  style="overflow:visible;"/>
					</clipPath>
					<g style="clip-path:url(#SVGID_12_);">
						
							<image style="overflow:visible;" width="947" height="949" xlink:href="9E0945D7.jpg"  transform="matrix(0.24 0 0 0.24 53.76 126.24)">
						</image>
					</g>
				</g>
			</g>
		</g>
	</g>
	<g>
		<defs>
			<path id="SVGID_13_" d="M215.4,238.1c0-0.6-0.3-1.3-0.7-1.7c-0.5-0.5-1.1-0.7-1.7-0.7c-4.3,0-13.2,0-17.5,0
				c-0.6,0-1.3,0.3-1.7,0.7c-0.5,0.5-0.7,1.1-0.7,1.7c0,0,0,0,0,0c0,0.6,0.3,1.3,0.7,1.7c0.5,0.5,1.1,0.7,1.7,0.7
				c4.3,0,13.2,0,17.5,0c0.6,0,1.3-0.3,1.7-0.7C215.2,239.3,215.4,238.7,215.4,238.1C215.4,238.1,215.4,238.1,215.4,238.1z"/>
		</defs>
		<clipPath id="SVGID_14_">
			<use xlink:href="#SVGID_13_"  style="overflow:visible;"/>
		</clipPath>
		<g class="st4">
			<defs>
				<rect id="SVGID_15_" x="193.1" y="235.6" width="22.3" height="4.8"/>
			</defs>
			<use xlink:href="#SVGID_15_"  style="overflow:visible;"/>
			<clipPath id="SVGID_16_">
				<use xlink:href="#SVGID_15_"  style="overflow:visible;"/>
			</clipPath>
			<g transform="matrix(1 0 0 1 1.525879e-05 0)" style="clip-path:url(#SVGID_16_);">
				
					<image style="overflow:visible;" width="64" height="14" xlink:href="9E0945D2.jpg"  transform="matrix(0.3487 0 0 0.3446 193.1009 235.6393)">
				</image>
			</g>
			<use xlink:href="#SVGID_15_"  style="overflow:visible;fill:none;stroke:#000000;stroke-miterlimit:10;"/>
		</g>
	</g>
	<g>
		<defs>
			<path id="SVGID_17_" d="M202.1,247.7c0-1.3-1.1-2.4-2.4-2.4h-4c-1.3,0-2.4,1.1-2.4,2.4v0c0,1.3,1.1,2.4,2.4,2.4h4
				C201,250.1,202.1,249,202.1,247.7L202.1,247.7z"/>
		</defs>
		<clipPath id="SVGID_18_">
			<use xlink:href="#SVGID_17_"  style="overflow:visible;"/>
		</clipPath>
		<g class="st5">
			<defs>
				<rect id="SVGID_19_" x="193.2" y="245.3" width="8.9" height="4.8"/>
			</defs>
			<use xlink:href="#SVGID_19_"  style="overflow:visible;"/>
			<clipPath id="SVGID_20_">
				<use xlink:href="#SVGID_19_"  style="overflow:visible;"/>
			</clipPath>
			<g transform="matrix(1 0 0 1 0 1.525879e-05)" style="clip-path:url(#SVGID_20_);">
				
					<image style="overflow:visible;" width="26" height="14" xlink:href="9E0945D3.jpg"  transform="matrix(0.3408 0 0 0.3446 193.2162 245.2894)">
				</image>
			</g>
			<use xlink:href="#SVGID_19_"  style="overflow:visible;fill:none;stroke:#000000;stroke-miterlimit:10;"/>
		</g>
	</g>
	<g>
		<defs>
			<path id="SVGID_21_" d="M200.2,218.8c0-0.6-0.3-1.3-0.7-1.7c-0.5-0.5-1.1-0.7-1.7-0.7c-1.7,0-3.9,0-5.6,0c-0.6,0-1.3,0.3-1.7,0.7
				c-0.5,0.5-0.7,1.1-0.7,1.7c0,0,0,0,0,0c0,0.6,0.3,1.3,0.7,1.7c0.5,0.5,1.1,0.7,1.7,0.7c1.7,0,3.9,0,5.6,0c0.6,0,1.3-0.3,1.7-0.7
				C200,220,200.2,219.4,200.2,218.8C200.2,218.8,200.2,218.8,200.2,218.8z"/>
		</defs>
		<clipPath id="SVGID_22_">
			<use xlink:href="#SVGID_21_"  style="overflow:visible;"/>
		</clipPath>
		<g class="st6">
			<defs>
				<rect id="SVGID_23_" x="189.8" y="216.3" width="10.4" height="4.8"/>
			</defs>
			<use xlink:href="#SVGID_23_"  style="overflow:visible;"/>
			<clipPath id="SVGID_24_">
				<use xlink:href="#SVGID_23_"  style="overflow:visible;"/>
			</clipPath>
			<g transform="matrix(1 0 0 1 -1.525879e-05 0)" style="clip-path:url(#SVGID_24_);">
				
					<image style="overflow:visible;" width="30" height="14" xlink:href="9E0945DD.jpg"  transform="matrix(0.3469 0 0 0.3446 189.8084 216.3425)">
				</image>
			</g>
			<use xlink:href="#SVGID_23_"  style="overflow:visible;fill:none;stroke:#000000;stroke-miterlimit:10;"/>
		</g>
	</g>
	<g>
		<defs>
			<path id="SVGID_25_" d="M208.4,228.3c0-1.3-1.1-2.4-2.4-2.4h-13.8c-1.3,0-2.4,1.1-2.4,2.4v0c0,1.3,1.1,2.4,2.4,2.4h13.8
				C207.3,230.7,208.4,229.6,208.4,228.3L208.4,228.3z"/>
		</defs>
		<clipPath id="SVGID_26_">
			<use xlink:href="#SVGID_25_"  style="overflow:visible;"/>
		</clipPath>
		<g class="st7">
			<defs>
				<rect id="SVGID_27_" x="189.7" y="225.9" width="18.6" height="4.8"/>
			</defs>
			<use xlink:href="#SVGID_27_"  style="overflow:visible;"/>
			<clipPath id="SVGID_28_">
				<use xlink:href="#SVGID_27_"  style="overflow:visible;"/>
			</clipPath>
			<g style="clip-path:url(#SVGID_28_);">
				
					<image style="overflow:visible;" width="54" height="14" xlink:href="9E0945DF.jpg"  transform="matrix(0.3449 0 0 0.3446 189.7315 225.8668)">
				</image>
			</g>
			<use xlink:href="#SVGID_27_"  style="overflow:visible;fill:none;stroke:#000000;stroke-miterlimit:10;"/>
		</g>
	</g>
	<g>
		<defs>
			<path id="SVGID_29_" d="M203.1,257.3c0-0.6-0.3-1.3-0.7-1.7c-0.5-0.5-1.1-0.7-1.7-0.7h-8.4c-0.6,0-1.3,0.3-1.7,0.7
				c-0.5,0.5-0.7,1.1-0.7,1.7v0c0,0.6,0.3,1.3,0.7,1.7c0.5,0.5,1.1,0.7,1.7,0.7h8.4c0.6,0,1.3-0.3,1.7-0.7
				C202.8,258.6,203.1,258,203.1,257.3L203.1,257.3z"/>
		</defs>
		<clipPath id="SVGID_30_">
			<use xlink:href="#SVGID_29_"  style="overflow:visible;"/>
		</clipPath>
		<g class="st8">
			<defs>
				<rect id="SVGID_31_" x="189.8" y="254.9" width="13.3" height="4.8"/>
			</defs>
			<use xlink:href="#SVGID_31_"  style="overflow:visible;"/>
			<clipPath id="SVGID_32_">
				<use xlink:href="#SVGID_31_"  style="overflow:visible;"/>
			</clipPath>
			<g transform="matrix(1 0 0 1 0 -1.525879e-05)" style="clip-path:url(#SVGID_32_);">
				
					<image style="overflow:visible;" width="38" height="14" xlink:href="9E0945D0.jpg"  transform="matrix(0.3491 0 0 0.3446 189.8084 254.9397)">
				</image>
			</g>
			<use xlink:href="#SVGID_31_"  style="overflow:visible;fill:none;stroke:#000000;stroke-miterlimit:10;"/>
		</g>
	</g>
	<path class="st9" d="M219.2,228.4c0-0.6-0.3-1.3-0.7-1.7c-0.5-0.5-1.1-0.7-1.7-0.7h-1.7c-0.6,0-1.3,0.3-1.7,0.7
		c-0.5,0.5-0.7,1.1-0.7,1.7v0c0,0.6,0.3,1.3,0.7,1.7c0.5,0.5,1.1,0.7,1.7,0.7h1.7c0.6,0,1.3-0.3,1.7-0.7
		C219,229.7,219.2,229.1,219.2,228.4L219.2,228.4z M211.3,247.7c0-0.6-0.3-1.3-0.7-1.7c-0.5-0.5-1.1-0.7-1.7-0.7h-1.7
		c-0.6,0-1.3,0.3-1.7,0.7c-0.5,0.5-0.7,1.1-0.7,1.7v0c0,0.6,0.3,1.3,0.7,1.7c0.5,0.5,1.1,0.7,1.7,0.7h1.7c0.6,0,1.3-0.3,1.7-0.7
		C211,249,211.3,248.3,211.3,247.7L211.3,247.7z M222.5,216.3c2.1,0,3.8-1.7,3.8-3.8c0-1.2,0-2.3,0-2.3c0-2-1.6-3.6-3.6-3.6l0,0
		c-1.1,0-2.1-0.4-3.1-1.3c-1.5-1.4-2.7-4-3.1-6.2c-0.5-3.3,1-5.6,3.5-5.6h47.7c1.1,0,2.1,0.4,3.1,1.3c1.5,1.4,2.7,4,3.1,6.2
		c0.5,3.3-1,5.6-3.5,5.6h-23.3c-3.8,0-6.9,3.1-6.9,6.9l0,0c0,3.8,3.1,6.9,6.9,6.9c4.3,0,9.1,0,9.1,0c1.5,0,3,0.7,4.2,1.9
		c1.5,1.5,2.7,3.7,3.1,5.6c0.4,1.8,0,3.3-0.8,4.3c-0.7,0.8-1.7,1.4-3.2,1.4h-12.3c-1.9,0-3.6,0.7-5,2.1c-1.3,1.3-2.1,3.1-2.1,5v17.8
		c0,4.1-3.5,5.9-7.2,5.5c-1.9-0.2-3.8-1-5-2.3c-1.3-1.3-3.1-2-4.9-2c-4.6,0-12,0-12,0c-0.6,0-1.3-0.3-1.7-0.7
		c-0.5-0.5-0.7-1.1-0.7-1.7l0,0c0-0.6,0.3-1.3,0.7-1.7c0.5-0.5,1.1-0.7,1.7-0.7h15.2v-4.6h-10.1c-0.6,0-1.3-0.3-1.7-0.7
		c-0.5-0.5-0.7-1.1-0.7-1.7c0,0,0,0,0,0c0-0.6,0.3-1.3,0.7-1.7c0.5-0.5,1.1-0.7,1.7-0.7h10.1v-4.8h-3c-0.6,0-1.3-0.3-1.7-0.7
		c-0.5-0.5-0.7-1.1-0.7-1.7c0,0,0,0,0,0c0-0.6,0.3-1.3,0.7-1.7c0.5-0.5,1.1-0.7,1.7-0.7h3v-4.9h-2c-0.6,0-1.3-0.3-1.7-0.7
		c-0.5-0.5-0.7-1.1-0.7-1.7c0,0,0,0,0,0c0-0.6,0.3-1.3,0.7-1.7c0.5-0.5,1.1-0.7,1.7-0.7h2v-4.7h-18.4c-0.6,0-1.3-0.3-1.7-0.7
		c-0.5-0.5-0.7-1.1-0.7-1.7c0,0,0,0,0,0c0-0.6,0.3-1.3,0.7-1.7c0.5-0.5,1.1-0.7,1.7-0.7C207.9,216.3,217.1,216.3,222.5,216.3z"/>
	<path class="st10" d="M229.9,223.6c0-0.6-0.3-1.3-0.7-1.7c-0.5-0.5-1.1-0.7-1.7-0.7c-7.2,0-28.7,0-36,0c-0.6,0-1.3,0.3-1.7,0.7
		c-0.5,0.5-0.7,1.1-0.7,1.7c0,0,0,0,0,0c0,0.6,0.3,1.3,0.7,1.7c0.5,0.5,1.1,0.7,1.7,0.7c7.2,0,28.7,0,36,0c0.6,0,1.3-0.3,1.7-0.7
		C229.6,224.8,229.9,224.2,229.9,223.6C229.9,223.6,229.9,223.6,229.9,223.6z"/>
	<path class="st10" d="M230.5,242.9c0-0.6-0.3-1.3-0.7-1.7c-0.5-0.5-1.1-0.7-1.7-0.7c-6.9,0-26.8,0-33.8,0c-0.6,0-1.3,0.3-1.7,0.7
		c-0.5,0.5-0.7,1.1-0.7,1.7c0,0,0,0,0,0c0,0.6,0.3,1.3,0.7,1.7c0.5,0.5,1.1,0.7,1.7,0.7c6.9,0,26.8,0,33.8,0c0.6,0,1.3-0.3,1.7-0.7
		C230.2,244.1,230.5,243.5,230.5,242.9C230.5,242.9,230.5,242.9,230.5,242.9z"/>
	<path class="st10" d="M233.3,233.2c0-0.6-0.3-1.3-0.7-1.7c-0.5-0.5-1.1-0.7-1.7-0.7c-7,0-27,0-34,0c-0.6,0-1.3,0.3-1.7,0.7
		c-0.5,0.5-0.7,1.1-0.7,1.7v0c0,0.6,0.3,1.3,0.7,1.7c0.5,0.5,1.1,0.7,1.7,0.7c7,0,27,0,34,0c0.6,0,1.3-0.3,1.7-0.7
		C233.1,234.4,233.3,233.8,233.3,233.2L233.3,233.2z"/>
	<path class="st10" d="M233.5,252.5c0-0.6-0.3-1.3-0.7-1.7c-0.5-0.5-1.1-0.7-1.7-0.7c-7.1,0-27.8,0-34.9,0c-0.6,0-1.3,0.3-1.7,0.7
		c-0.5,0.5-0.7,1.1-0.7,1.7l0,0c0,0.6,0.3,1.3,0.7,1.7c0.5,0.5,1.1,0.7,1.7,0.7c7.1,0,27.8,0,34.9,0c0.6,0,1.3-0.3,1.7-0.7
		C233.3,253.8,233.5,253.2,233.5,252.5L233.5,252.5z"/>
</g>
<g>
	<text transform="matrix(1 0 0 1 268.1768 264.2568)" class="st9 st11 st12">orge</text>
</g>
</svg>
